PathFileType	4	(X/Y/Z)	C:/Users/beibeiliu/ov580/test_trc\sequence.26_training_dense_left.trc
DataRate	CameraRate	NumFrames	NumMarkers	Units	OrigDataRate	OrigDataStartFrame	OrigNumFrames
120	120	24	19	mm	120	1	54
Frame#	Time	ThumbCMC			ThumbMCP			ThumbIP			ThumbTip			IndexMCP			IndexPIP			IndexTip			MiddleMCP			MiddlePIP			MiddleTip			RingMCP			RingPIP			RingTip			PinkyMCP			PinkyPIP			PinkyTip			BackHand1			BackHand2			BackHand3	
		X0	Y0	Z0	X1	Y1	Z1	X2	Y2	Z2	X3	Y3	Z3	X4	Y4	Z4	X5	Y5	Z5	X6	Y6	Z6	X7	Y7	Z7	X8	Y8	Z8	X9	Y9	Z9	X10	Y10	Z10	X11	Y11	Z11	X12	Y12	Z12	X13	Y13	Z13	X14	Y14	Z14	X15	Y15	Z15	X16	Y16	Z16	X17	Y17	Z17	X18	Y18	Z18	
0	0	-215.685	53.6602	152.087	-207.105	61.5026	116.794	-212.579	50.8926	87.0877	-217.869	15.5299	85.8949	-255.338	59.4617	89.5093	-255.371	71.7617	67.9319	-257.871	81.4493	38.7936	-235.407	45.3669	76.1784	-205.241	53.1973	65.5451	-180.994	48.2222	92.8648	-228.354	29.3153	71.637	-201.415	37.4205	66.0835	-183.962	36.798	95.9128	-232.602	1.97321	74.7022	-229.299	7.14358	56.5144	-230.364	16.2986	31.4611	-247.009	4.01067	121.418	-236.984	-5.4715	154.509	-248.254	28.2631	146.925	
1	0.00833333	-186.118	58.3051	147.965	-176.153	65.6768	115.286	-186.651	58.1751	89.8802	-202.967	32.9608	81.7479	-219.991	82.3849	86.7731	-216.348	93.4955	62.1126	-214.187	101.325	35.7489	-207.648	62.4875	72.312	-181.429	57.0705	61.2521	-159.335	39.495	88.4373	-213.951	39.8489	68.4363	-184.015	40.4486	62.4139	-169.028	31.7534	96.3717	-225.396	22.5554	78.0802	-222.44	28.6412	50.106	-222.729	34.4566	29.77	-234.557	24.9745	122.632	-230.834	17.4513	150.93	-224.139	51.7893	144.042	
2	0.0166667	-160.123	52.4328	146.353	-148.281	55.7461	115.917	-158.96	56.9446	82.9456	-178.926	41.5776	77.7315	-180.942	91.7693	81.8931	-178.318	95.4514	60.5368	-172.23	104.582	36.8991	-185.545	62.7712	70.603	-159.833	47.7158	57.5397	-143.735	27.3277	82.9093	-194.592	48.5527	69.5398	-165.698	31.6577	62.1941	-158.799	21.0522	93.1118	-215.066	33.8068	75.199	-210.644	36.4336	50.4411	-206.697	42.4298	28.3046	-219.862	40.3757	120.768	-215.758	32.1875	149.151	-198.954	59.0968	143.518	
3	0.025	-137.579	44.4902	140.1	-128.999	35.868	112.467	-132.233	35.9178	83.3528	-154.017	29.0638	71.5777	-150.398	76.6075	75.5943	-140.351	81.4272	52.4399	-140.755	80.4537	30.0303	-161.778	53.397	69.0712	-143.346	26.2118	56.8289	-138.428	6.67251	86.2408	-173.166	38.6449	66.2656	-154.342	12.7279	64.1607	-147.517	4.64926	92.6652	-196.29	34.1824	77.0416	-193.207	33.8177	51.844	-193.942	34.3571	27.6434	-199.124	47.6773	116.509	-202.996	39.6065	146.669	-173.887	62.073	137.621	
4	0.0333333	-126.344	27.8324	143.817	-115.606	6.6378	114.739	-116.116	-3.99265	89.0462	-139.122	-7.49839	70.8258	-126.754	54.6574	75.7723	-119.806	50.3475	53.2736	-113.563	47.2343	29.8183	-141.985	33.0118	63.9615	-129.904	3.48217	65.9419	-130.94	-3.33199	97.5862	-161.742	16.4996	69.9243	-141.926	-10.1171	74.0597	-139.27	-16.1748	106.21	-186.456	18.1309	75.5419	-178.869	13.893	56.3512	-181.259	9.28444	31.4526	-183.687	43.3206	116.248	-182.668	43.2596	146.148	-155.238	54.1145	134.688	
5	0.0416667	-116.747	19.8653	146.411	-109.223	-6.75726	125.513	-128.039	-18.8222	102.555	-141.821	-28.0856	87.6607	-113.409	32.2079	79.5943	-107.743	19.3679	54.1124	-99.8532	12.6092	35.291	-132.427	6.70913	72.4286	-118.542	-19.6527	78.5352	-124.944	-15.2585	113.897	-150.144	-5.62521	78.4922	-133.038	-33.6972	85.3206	-126.259	-40.7153	113.81	-173.187	-0.32128	82.7822	-167.741	-10.5595	66.3538	-166.727	-25.0655	42.8609	-170.174	32.4323	121.006	-175.492	35.4568	148.434	-142.154	46.066	136.43	
6	0.05	-111.6	21.5803	155.935	-101.199	-10.3217	139.721	-115.908	-26.4231	123.419	-131.3	-36.6218	107.35	-106.593	16.86	83.0486	-94.3395	7.08733	69.7587	-87.6305	-7.94239	49.1773	-120.845	-7.22926	83.621	-105.208	-29.2553	93.4694	-113.243	-20.1142	131.026	-134.968	-14.4819	91.4683	-119.689	-41.6622	101.757	-112.265	-41.7208	136.913	-161.611	-18.9487	92.0493	-150.078	-35.5372	76.3102	-142.961	-51.442	60.8924	-163.485	22.5186	124.404	-175.312	30.8499	150.385	-143.935	42.7741	138.485	
7	0.0583333	-118.831	34.048	164.531	-97.127	3.49575	155.429	-91.3608	-20.6249	133.583	-110.099	-35.8705	119.004	-105.001	23.3424	89.7413	-86.1965	11.4029	74.5363	-78.6441	-2.0076	59.7969	-111.714	-3.83134	92.2252	-93.7164	-22.5271	105.496	-100.507	-11.4631	143.193	-122.848	-15.1511	100.967	-108.109	-35.3601	121.924	-114.116	-24.1906	151.457	-146.788	-25.9181	97.8072	-131.527	-38.3083	91.0796	-112.088	-57.0247	79.7318	-168.673	14.094	124.864	-179.545	25.2034	147.997	-149.683	45.8	137.266	
8	0.0666667	-132.655	48.0419	162.064	-105.065	31.8986	149.036	-100.425	10.9253	130.988	-117.969	-11.9122	122.651	-111.694	36.3402	93.5199	-89.2833	29.4413	76.6511	-70.6178	23.0376	60.6887	-108.24	9.8404	99.8812	-82.519	-5.63756	118.527	-89.3909	0.125955	152.436	-113.214	-8.88496	106.648	-94.0851	-17.8017	129.812	-107.946	-1.60041	157.847	-135.955	-22.6703	106.341	-113.996	-29.006	98.5965	-87.7031	-40.4199	91.2506	-166.209	9.50503	124.98	-185.543	16.1325	150.092	-162.257	42.432	137.672	
9	0.075	-153.179	56.0391	158.114	-118.22	55.0117	142.748	-105.233	35.9283	125.668	-117.19	7.89761	126.623	-124.556	50.7003	88.8285	-106.514	48.7003	75.3399	-86.5003	47.7137	56.8929	-108.865	28.9952	99.5074	-82.7947	29.0918	118.173	-91.2257	30.2205	152.742	-108.635	11.7568	105.916	-87.9475	8.5474	128.723	-107.198	19.5868	156.265	-126.164	-8.7115	108.647	-99.9942	-12.0175	99.0942	-75.8017	-11.0995	92.3085	-166.751	3.49773	123.965	-185.093	7.08615	144.513	-176.139	40.0375	133.66	
10	0.0833333	-171.397	54.3843	149.745	-140.221	61.5701	135.964	-120.067	45.0981	119.742	-119.73	13.9625	122.884	-140.96	48.7375	82.5705	-125.445	57.1707	68.3054	-105.163	58.708	48.555	-118.101	37.9619	95.3795	-97.0808	49.8142	112.309	-104.191	49.4676	148.096	-112.005	16.6944	104.646	-93.1334	31.9031	123.946	-115.468	39.0185	151.943	-121.068	-1.70431	108.65	-98.1117	3.7215	96.9484	-76.4698	11.341	87.4511	-163.587	-4.54531	124.897	-180.478	-5.08167	145.179	-185.724	23.8865	129.305	
11	0.0916667	-187.923	42.7494	147.354	-163.489	64.2886	127.675	-139.835	55.0479	110.04	-128.619	27.5073	114.346	-162.385	43.2391	74.5314	-148.385	53.9221	56.8254	-133.045	58.1896	40.7058	-137.775	38.7896	87.4432	-116.092	60.0414	102.267	-125.959	63.7523	139.137	-125.116	22.8852	96.8757	-110.607	47.0852	110.333	-125.598	49.3045	141.13	-122.868	6.49133	99.6891	-107.69	14.2746	92.0221	-84.9758	23.5085	76.4415	-163.822	-10.6541	120.798	-178.798	-17.0613	146.277	-193.318	13.8261	126.124	
12	0.1	-199.326	29.0284	140.419	-182.16	50.1861	124.496	-163.605	56.4372	101.283	-141.266	36.4036	94.2765	-180.773	29.5182	68.9229	-171.666	41.864	50.1265	-156.194	50.2834	33.8633	-154.464	32.6003	79.0577	-136.267	57.2007	91.8194	-141.395	61.0296	125.366	-135.377	18.3287	89.0307	-128.685	47.9706	101.886	-143.062	46.8301	131.521	-129.623	-0.222973	98.0919	-117.418	12.0885	85.8003	-101.181	24.664	65.0978	-168.921	-15.3709	118.286	-181.012	-25.4067	148.216	-199.375	-2.88452	128.519	
13	0.108333	-211.574	17.3995	141.811	-200.426	41.5606	118.651	-189.337	50.3848	93.9365	-167.856	44.7693	76.686	-195.083	6.32924	69.4509	-188.466	19.5999	46.2206	-170.524	41.6499	30.392	-168.706	16.008	70.8696	-157.142	44.1208	80.5444	-163.013	48.0833	113.779	-151.292	9.04838	81.0229	-143.51	34.8585	90.8646	-158.345	36.9329	121.371	-142.318	-8.19252	88.2136	-127.862	4.7826	74.1697	-118.516	14.8033	55.9971	-174.931	-28.0579	118.113	-184.253	-36.8397	146.638	-208.475	-20.4328	130.605	
14	0.116667	-225.804	2.26981	140.34	-221.756	24.0174	119.618	-218.281	34.8016	92.8384	-204.833	35.5819	70.7672	-206.218	-13.2016	66.5198	-197.421	3.58202	45.5374	-183.292	32.5736	45.5504	-185.21	-4.93061	70.1167	-174.395	25.4795	73.1348	-180.729	26.4306	112.163	-165.108	-8.06712	77.9936	-158.683	21.2508	85.5965	-171.98	22.8352	114.029	-147.883	-26.2089	87.3293	-138.771	-16.5158	72.8312	-126.351	-2.6011	48.5257	-179.674	-44.4953	123.463	-188.52	-44.6073	150.052	-213.468	-34.5867	131.794	
15	0.125	-230.791	-4.55047	142.33	-232.063	12.8158	119.701	-239.645	22.4313	92.9257	-237.147	29.4021	74.4085	-211.23	-18.0536	69.4282	-199.97	5.66359	52.7118	-184.791	29.3419	76.3659	-186.585	-18.0655	72.6475	-177.715	15.7127	76.8204	-184.993	14.4353	110.979	-168.326	-21.6487	80.6473	-162.703	8.14295	85.1512	-174.69	8.99004	116.65	-151.34	-41.1317	92.4172	-141.719	-31.7367	73.3208	-129.553	-17.5044	51.4559	-186.279	-50.4402	124.3	-193.144	-51.2037	154.886	-220.076	-40.88	132.648	
16	0.133333	-229.085	-3.60512	144.879	-231.622	12.1025	119.022	-240.443	20.4135	99.7509	-247.026	27.1109	76.2445	-204.177	-17.4223	73.7693	-184.574	8.55323	67.9159	-181.697	19.2444	97.7739	-181.254	-24.498	78.0728	-166.236	5.14031	82.3255	-180.033	3.38751	115.66	-167.159	-26.7652	83.9776	-155.037	0.432655	93.3149	-174.048	-2.82705	123.625	-151.454	-50.8039	96.3507	-137.599	-44.4442	79.6393	-123.263	-29.5053	61.1628	-189.115	-55.5542	132.372	-197.372	-54.1328	156.632	-218.89	-41.0103	135.084	
17	0.141667	-226.5	0.0172584	141.273	-224.565	14.5009	122.888	-235.018	24.676	101.039	-244.684	33.985	81.2948	-198.819	-12.0048	74.3773	-173.889	9.42085	77.2864	-178.678	11.6797	108.235	-175.002	-23.4347	76.4157	-160.855	1.20469	85.5705	-179.283	-4.57609	120.044	-160.789	-33.033	86.1345	-148.138	-7.64084	96.2414	-172.61	-7.10582	122.146	-154.683	-56.7934	99.7935	-133.171	-50.433	81.741	-118.861	-37.1636	68.477	-193.631	-56.8546	128.945	-199.367	-55.4497	156.669	-218.706	-38.5791	135.97	
18	0.15	-224.084	7.0714	138.579	-219.009	19.6054	121.858	-229.982	33.9533	96.4315	-234.73	41.4768	80.3496	-195.812	-9.20851	75.056	-169.743	9.51204	77.5759	-176.601	6.31988	111.199	-179.262	-25.1831	76.7842	-155.817	-3.59724	90.638	-173.339	-4.71688	118.977	-166.163	-37.3507	86.6272	-147.491	-13.4881	100.052	-173.101	-12.2665	125.709	-161.805	-61.3754	98.9718	-141.76	-55.941	79.729	-124.664	-45.1694	67.3418	-202.423	-53.3015	128.797	-209.467	-52.6548	157.748	-221.32	-30.7823	135.567	
19	0.158333	-216.244	19.8567	141.154	-212.247	36.7027	122.547	-216.655	49.7234	101.18	-221.214	63.7061	85.6782	-194.391	0.604374	70.6311	-167.987	9.85847	75.0806	-175.477	8.08303	109.657	-184.102	-17.9149	72.9684	-159.998	-2.54407	85.3946	-174.715	-2.74153	117.643	-174.093	-34.3727	82.1509	-154.601	-18.3608	94.8071	-175.269	-10.6768	124.014	-183.047	-61.0297	94.7442	-164.329	-63.2635	76.0372	-141.861	-57.9144	60.37	-218.333	-43.1922	122.787	-220.73	-37.4445	156.319	-230.421	-9.29253	134.26	
20	0.166667	-204.979	31.7819	145.582	-197.169	48.8762	122.388	-198.273	66.1103	102.686	-197.449	82.167	89.1027	-199.5	15.6939	73.1256	-167.007	10.2559	76.4348	-175.343	10.2222	109.62	-196.202	-8.25408	72.7824	-165.368	-3.3788	80.6714	-177.196	0.636692	116.328	-193.658	-25.756	78.8443	-164.113	-20.3593	93.6675	-178.118	-8.17128	119.649	-210.072	-47.5224	86.5629	-196.861	-55.3	66.4815	-181.051	-57.882	45.7027	-230.683	-21.8028	121.432	-231.654	-18.9081	150.096	-230.897	8.70514	131.88	
21	0.175	-191.409	43.7045	142.306	-177.619	52.8425	127.132	-172.143	73.6205	107.045	-166.128	85.1038	95.5724	-193.001	32.2174	70.5135	-166.57	17.8573	70.2864	-169.102	13.1625	103.674	-198.025	13.0517	66.8554	-171.944	-1.97895	77.7796	-176.343	4.06927	111.45	-207.819	-6.21151	73.5611	-177.634	-14.6755	84.2427	-183.106	-5.24378	114.958	-231.177	-20.2267	77.0555	-224.69	-29.6714	55.2277	-217.912	-39.4493	36.2923	-237.996	6.71041	118.087	-236.253	4.15344	151.098	-223.207	32.5809	134.228	
22	0.183333	-172.79	43.317	141.527	-158.768	52.1971	119.825	-145.07	69.9072	105.037	-132.396	84.133	93.9232	-181.803	45.5421	70.0467	-164.851	18.4245	64.761	-167.882	11.5199	96.5472	-195.694	27.3811	65.3434	-180.159	1.55554	68.9666	-179.544	5.66711	109.07	-209.765	15.8827	69.9309	-189.38	-8.97203	74.921	-184.737	1.10628	106.844	-241.135	7.46361	74.2094	-239.593	-1.98838	50.5274	-240.883	-11.2166	29.4719	-234.943	31.318	116.658	-232.158	27.379	149.871	-207.364	50.0255	133.813	
23	0.191667	-160.607	39.4398	137.547	-143.803	43.0662	118.201	-126.756	55.2657	107.181	-111.285	69.7574	93.4712	-165.665	40.6786	65.1697	-158.025	9.1871	66.5341	-160.441	7.22531	96.2158	-186.96	25.6219	60.8008	-169.029	0.679989	68.6984	-170.381	6.08935	106.572	-204.422	16.9672	64.5392	-183.788	-6.47257	74.4573	-180.843	2.23192	105.512	-231.021	22.1481	71.1721	-232.823	11.2617	48.3116	-233.41	0.459452	27.7764	-220.541	40.1214	116.805	-220.886	34.7063	144.81	-191.997	51.6583	128.934	
